<?xml version="1.0" encoding="UTF-8" standalone="no"?>
<svg width="28px" height="25px" viewBox="0 0 28 25" version="1.1" xmlns="http://www.w3.org/2000/svg" xmlns:xlink="http://www.w3.org/1999/xlink" xmlns:sketch="http://www.bohemiancoding.com/sketch/ns">
    <!-- Generator: Sketch 3.3.3 (12081) - http://www.bohemiancoding.com/sketch -->
    <title>Slice 1</title>
    <desc>Created with Sketch.</desc>
    <defs></defs>
    <g id="Page-1" stroke="none" stroke-width="1" fill="none" fill-rule="evenodd" sketch:type="MSPage">
        <g id="noun_163424_cc" sketch:type="MSLayerGroup" fill="#FFFFFF">
            <path d="M28,1.05777778 L28,2.48888889 C28,7.43555556 24.2666667,11.4488889 19.2888889,11.76 L19.2888889,23.8 C19.2888889,24.2977778 18.8533333,24.5466667 18.3866667,24.5466667 L15.8666667,24.5466667 L15.8666667,21.1866667 C15.8666667,20.6888889 15.4311111,20.3155556 14.9333333,20.3155556 C14.4355556,20.3155556 14,20.72 14,21.1866667 L14,24.5777778 L10.5777778,24.5777778 L10.5777778,21.1866667 C10.5777778,20.6888889 10.1422222,20.3155556 9.64444444,20.3155556 C9.14666667,20.3155556 8.71111111,20.72 8.71111111,21.1866667 L8.71111111,23.8 L8.71111111,24.5466667 L5.28888889,24.5466667 L5.28888889,21.1866667 C5.28888889,20.6888889 4.85333333,20.3155556 4.35555556,20.3155556 C3.85777778,20.3155556 3.42222222,20.72 3.42222222,21.1866667 L3.42222222,24.5777778 L0.871111111,24.5777778 C0.404444444,24.5777778 0,24.2977778 0,23.8311111 L0,15.6177778 C0,12.2888889 2.02222222,9.39555556 4.91555556,8.30666667 C4.85333333,8.64888889 4.79111111,8.96 4.76,9.33333333 C4.63555556,11.2311111 5.35111111,13.1288889 6.68888889,14.4355556 C7.87111111,15.6177778 9.42666667,16.2711111 11.1066667,16.2711111 L11.3555556,16.2711111 C13.0977778,16.2088889 14.7155556,15.4933333 15.96,14.2488889 C16.3022222,13.9066667 16.3022222,13.3466667 15.96,13.0044444 C15.6177778,12.6622222 15.0577778,12.6622222 14.7155556,13.0044444 C13.7822222,13.9377778 12.5688889,14.4977778 11.2622222,14.5288889 C9.95555556,14.5911111 8.77333333,14.1244444 7.87111111,13.2222222 C6.90666667,12.2577778 6.37777778,10.8577778 6.47111111,9.45777778 C6.53333333,8.27555556 7,7.34222222 7.84,6.72 L9.27111111,5.6 L20.3155556,5.6 C22.7111111,5.6 24.5155556,3.26666667 24.5155556,1.21333333 C24.5155556,0.715555556 24.92,0.311111111 25.3866667,0.311111111 L27.0666667,0.311111111 C27.5955556,0.311111111 28,0.591111111 28,1.05777778 L28,1.05777778 Z" id="Shape" sketch:type="MSShapeGroup"></path>
        </g>
    </g>
</svg>