<?xml version="1.0" encoding="UTF-8" standalone="no"?>
<svg width="45px" height="35px" viewBox="0 0 45 35" version="1.1" xmlns="http://www.w3.org/2000/svg" xmlns:xlink="http://www.w3.org/1999/xlink" xmlns:sketch="http://www.bohemiancoding.com/sketch/ns">
    <!-- Generator: Sketch 3.3.3 (12081) - http://www.bohemiancoding.com/sketch -->
    <title>Slice 1</title>
    <desc>Created with Sketch.</desc>
    <defs></defs>
    <g id="Page-1" stroke="none" stroke-width="1" fill="none" fill-rule="evenodd" sketch:type="MSPage">
        <g id="2d_cartoon_elephant" sketch:type="MSLayerGroup" transform="translate(0.000000, 0.825658)">
            <g id="layer1" transform="translate(0.027551, 0.132981)" sketch:type="MSShapeGroup">
                <path d="M29.0608463,0.0184748666 C26.7551559,-0.0439997423 25.0035728,0.731397799 23.3635852,2.19383129 C22.2266882,1.27579004 20.2264504,1.38692302 18.7058024,1.16853531 C12.4193368,0.570354604 5.71585867,3.01337046 2.50726806,8.44382102 C1.1366897,10.5637632 -0.169017963,13.0607345 0.17676668,15.7313489 C0.410545795,16.9185571 1.97386942,17.0728622 2.75871644,16.4241564 C2.99557787,16.3775318 3.2648939,15.6667416 3.32565486,16.1839831 C3.94183626,17.9745244 5.2498638,19.4688691 6.19065486,21.0982977 C6.67037061,24.0008677 4.93732136,26.8144642 5.87569631,29.6937293 C6.95741808,31.6498423 9.50369177,31.9253646 11.4689434,31.7444395 C13.037989,31.7064936 15.0621822,31.9707345 16.1063744,30.6082352 C16.8949358,29.0638088 15.3974571,27.5252352 14.9973056,26.0403245 C14.7441517,25.2603732 14.52163,24.0812496 15.2225054,23.5646924 C15.9585654,23.6742084 16.528561,24.3546776 17.3137989,24.3498742 C18.7783922,24.6476565 20.2633671,24.1475773 21.6493111,24.0681325 C22.731896,25.7410996 21.7402675,27.6345414 21.6790387,29.388894 C21.6685911,30.4862819 22.5815318,31.3867366 23.6541606,31.5319786 C25.4757116,31.9866539 27.3677324,31.750183 29.1820544,31.6151155 C30.5139661,31.3253128 31.4809347,29.8465446 30.8529229,28.5021005 C30.2930137,26.8374928 29.5021383,25.0412968 30.1560432,23.3568501 C30.5039731,22.2112236 31.5728726,21.5560797 32.6401436,21.1999094 C32.894695,21.0620411 33.8004969,20.4038348 33.7278479,20.6543008 C32.425116,22.1105223 30.6750133,23.8446058 31.2376081,26.0726555 C31.6084139,27.6598978 32.4739267,29.3498337 33.9619216,30.1648384 C36.0193792,31.057643 38.7356509,29.2052095 38.1537954,26.9455929 C37.9668817,26.2753322 37.2983305,25.8644408 36.7996708,25.5091721 C37.02265,24.6270533 38.0857639,24.2608416 38.6875094,23.6570667 C40.7863191,22.1349402 42.6787515,20.1768112 43.3457407,17.5834543 C44.8706213,12.6531213 43.4782047,6.71535241 39.7558093,2.85468318 C37.4527408,0.839230422 34.2879555,0.583691979 31.4489227,0.133942783 C30.6540856,0.0481085526 29.8556509,0.00085723381 29.0608463,0.0184748666 L29.0608463,0.0184748666 Z" id="path3175" fill="#000000"></path>
                <path d="M39.4132402,21.4692878 C40.7117751,20.3527762 42.9738423,17.9336683 42.7360763,12.9093677 C42.4983088,7.88506715 39.6686103,3.23293612 37.2146402,2.58163795 C34.7606702,1.93033979 24.8119646,-1.5122373 23.2958468,5.83812879 C21.7797306,13.1884964 27.9520825,15.6076043 29.5232392,15.3284756 C31.094396,15.0493485 32.6802285,11.141558 32.6802285,11.141558 C32.6802285,11.141558 32.1371861,15.421518 30.202044,15.8867314 C28.2669019,16.3519448 23.385379,15.6076043 22.011625,10.2111327 C20.6378696,4.81465961 23.4565579,3.3259785 21.5705833,2.86076658 C19.0585378,2.24112104 12.3667272,1.372084 7.14176915,5.18683062 C1.91680961,9.00157872 0.307495559,16.3519448 1.67024082,15.6076043 C3.03298608,14.8632637 3.57089124,12.4441558 3.93414528,14.2119655 C4.29739637,15.9797753 5.73426224,18.7710527 6.998674,19.8875643 C8.26308577,21.0040758 6.4409544,27.7961861 6.77778968,29.0057401 C7.11462347,30.215294 9.08939301,30.5874651 10.5805621,30.5874651 C12.0717297,30.5874651 15.4312633,30.6805074 15.1964331,29.6570383 C14.9616028,28.6335706 13.7551643,26.7727184 13.5695016,24.8188225 C13.3838388,22.864928 14.750987,22.2136298 15.3145781,22.3066722 C15.8781706,22.3997146 16.1937258,23.2046822 18.5273421,23.237099 C20.7646072,23.2681781 20.7332748,22.5857993 21.669657,22.6788417 C22.6060408,22.7718841 23.2312752,24.1675228 23.3105315,25.8422902 C23.3897863,27.5170575 22.803445,28.9126962 22.8474753,29.8431216 C22.8915071,30.7735483 29.6105715,30.9596346 29.8373288,29.843123 C30.0640861,28.7266115 28.8752606,27.2379304 28.8092144,25.8422902 C28.7431682,24.4466514 28.7974714,21.6553725 30.5330078,20.911032 C32.2685457,20.1666914 34.0532511,18.4919241 35.2244636,19.6084356 C36.3956776,20.7249472 32.3118447,23.0510127 32.3155132,25.0979496 C32.3191833,27.144888 34.1912164,29.2848672 34.6572069,29.2848672 C35.1231973,29.2848672 37.0539365,28.7266129 37.0942968,27.6101014 C37.13466,26.4935898 35.5679047,26.8657608 35.5062614,25.563163 C35.444618,24.2605667 38.0608374,22.6321151 39.4132402,21.4692878 L39.4132402,21.4692878 Z" id="path2383" fill="#FFFFFF"></path>
                <path d="M39.1227847,11.9299648 C39.1229302,12.2624708 38.9453276,12.5697811 38.6569122,12.736076 C38.3684968,12.9023709 38.0131124,12.9023709 37.7246971,12.736076 C37.4362817,12.5697811 37.2586791,12.2624708 37.2588245,11.9299648 C37.2586791,11.5974588 37.4362817,11.2901485 37.7246971,11.1238536 C38.0131124,10.9575587 38.3684968,10.9575587 38.6569122,11.1238536 C38.9453276,11.2901485 39.1229302,11.5974588 39.1227847,11.9299648 L39.1227847,11.9299648 Z" id="path3195" fill="#000000"></path>
                <path d="M40.4165022,19.2673911 C41.0827083,18.7500948 39.3801816,17.6416028 38.7139755,16.6070103 C38.0477694,15.5724178 36.7153573,17.2721055 37.0854718,18.306698 C37.4555863,19.3412905 39.6022503,19.6368884 40.4165022,19.2673911 L40.4165022,19.2673911 Z" id="path3217" stroke="#000000" fill="#FFFFFF"></path>
                <path d="M13.5982091,31.1265351 C14.7423159,30.9697706 16.1431889,30.7084961 16.1085684,29.9769284 C16.0739494,29.2453621 15.1598154,27.6254621 15.1598154,27.6254621 C15.1598154,27.6254621 14.414661,27.3641876 13.8187041,28.0435011 C13.2227458,28.722813 13.1646348,30.8130062 13.5982091,31.1265351 L13.5982091,31.1265351 Z" id="path3219" stroke="#000000" fill="#FFFFFF"></path>
                <path d="M28.3586799,31.201614 C29.5027867,31.0448495 30.9036597,30.783575 30.8690392,30.0520073 C30.8344202,29.320441 29.9202862,27.700541 29.9202862,27.700541 C29.9202862,27.700541 29.1751318,27.4392665 28.5791749,28.11858 C27.9832165,28.7978919 27.9251056,30.8880851 28.3586799,31.201614 L28.3586799,31.201614 Z" id="path3221" stroke="#000000" fill="#FFFFFF"></path>
            </g>
        </g>
    </g>
</svg>