<?xml version="1.0" standalone="no"?>
<!DOCTYPE svg PUBLIC "-//W3C//DTD SVG 20010904//EN"
 "http://www.w3.org/TR/2001/REC-SVG-20010904/DTD/svg10.dtd">
<svg version="1.0" xmlns="http://www.w3.org/2000/svg"
 width="370.000000pt" height="370.000000pt" viewBox="0 0 370.000000 370.000000"
 preserveAspectRatio="xMidYMid meet">
<metadata>
Created by potrace 1.11, written by Peter Selinger 2001-2013
</metadata>
<g transform="translate(0.000000,370.000000) scale(0.100000,-0.100000)"
fill="#000000" stroke="none">
<path d="M1298 3485 c-223 -55 -408 -222 -481 -435 -31 -91 -39 -142 -39 -240
1 -146 62 -306 160 -421 86 -101 79 -100 176 -27 47 35 110 76 140 92 50 26
71 46 48 46 -22 0 -105 67 -137 110 -108 148 -95 342 32 468 123 121 295 143
441 55 30 -18 56 -32 57 -31 1 2 20 64 43 138 22 74 43 142 47 151 8 21 -41
50 -132 80 -86 27 -269 34 -355 14z"/>
<path d="M2203 3440 c-309 -80 -518 -355 -508 -668 1 -54 6 -111 10 -129 l7
-32 113 3 c62 1 137 0 166 -4 30 -4 55 -7 56 -6 1 1 -8 28 -19 61 -20 59 -26
142 -15 199 18 90 103 198 187 241 206 104 461 -9 515 -228 4 -15 10 -27 14
-25 29 12 261 183 261 192 0 31 -83 150 -155 221 -129 130 -284 193 -473 193
-52 0 -116 -7 -159 -18z"/>
<path d="M502 2990 c-219 -58 -387 -216 -469 -441 -24 -67 -27 -87 -27 -209 0
-121 3 -143 27 -213 91 -262 290 -420 577 -461 l35 -5 28 87 c15 48 41 114 58
147 40 79 44 98 18 90 -10 -4 -44 -6 -74 -6 -169 0 -312 114 -353 281 -50 208
113 426 326 436 35 1 66 5 69 7 4 5 -20 90 -78 275 -13 39 -29 40 -137 12z"/>
<path d="M2871 2839 c-67 -17 -196 -78 -237 -111 -72 -59 -194 -207 -194 -236
0 -5 33 -28 73 -52 39 -24 94 -60 121 -81 27 -22 51 -39 55 -39 3 0 17 20 30
45 87 165 294 234 465 156 198 -91 272 -327 160 -516 -55 -94 -177 -169 -286
-174 -16 -1 -16 -4 -2 -36 15 -36 64 -212 62 -224 -4 -33 3 -40 35 -35 131 23
250 87 352 189 135 134 193 276 193 467 0 169 -47 303 -151 429 -83 100 -194
173 -327 214 -83 25 -256 27 -349 4z"/>
<path d="M1693 2495 c-454 -70 -827 -411 -942 -862 -114 -449 57 -928 433
-1211 92 -69 269 -156 386 -188 83 -23 118 -27 275 -29 193 -4 252 4 395 51
286 96 534 312 673 589 35 70 84 222 98 302 17 100 19 275 3 379 -14 92 -58
251 -75 268 -5 6 -9 16 -9 23 0 12 -106 203 -119 213 -3 3 -19 22 -34 43 -84
113 -256 249 -405 321 -78 39 -218 85 -277 92 -22 3 -47 8 -55 11 -31 11 -269
10 -347 -2z m312 -359 c60 -10 162 -44 219 -73 92 -47 130 -76 219 -166 75
-76 95 -104 136 -191 62 -126 83 -213 86 -341 6 -325 -187 -618 -492 -748
-164 -69 -385 -77 -554 -18 -238 82 -437 284 -503 513 -28 95 -36 144 -38 221
-2 145 40 307 110 421 35 59 44 71 106 143 96 113 302 220 464 242 64 8 186 7
247 -3z"/>
</g>
</svg>
